<svg xmlns="http://www.w3.org/2000/svg" width="96" height="96" viewBox="0 0 96 96" role="img" aria-label="Les Étoiles du Sine  monogramme">
  <defs>
    <linearGradient id="g" x1="0" y1="0" x2="1" y2="1">
      <stop offset="0" stop-color="#D41F2A"/>
      <stop offset="1" stop-color="#0A48A0"/>
    </linearGradient>
    <filter id="s" x="-40%" y="-40%" width="180%" height="180%">
      <feDropShadow dx="0" dy="8" stdDeviation="8" flood-color="#000" flood-opacity=".28"/>
    </filter>
  </defs>
  <rect x="6" y="6" width="84" height="84" rx="18" fill="#0B1320" stroke="rgba(255,255,255,.16)" stroke-width="2"/>
  <path d="M26 62V28h22c9 0 15 5 15 13 0 9-7 14-16 14H36v7H26Zm10-16h10c5 0 7-2 7-5 0-3-2-5-7-5H36v10Z" fill="#FFFFFF" opacity=".92"/>
  <path d="M66 30l6 6-6 6" fill="none" stroke="url(#g)" stroke-width="4" stroke-linecap="round" stroke-linejoin="round" filter="url(#s)"/>
  <circle cx="68" cy="58" r="10" fill="url(#g)" opacity=".92"/>
  <path d="M68 49l2.2 6.8h7.1l-5.7 4.1 2.2 6.8-5.8-4.1-5.8 4.1 2.2-6.8-5.7-4.1h7.1L68 49Z" fill="#FFFFFF" opacity=".92"/>
</svg>
