<svg xmlns="http://www.w3.org/2000/svg" width="1200" height="640" viewBox="0 0 1200 640" role="img" aria-label="Carte Google Maps (placeholder)">
  <defs>
    <linearGradient id="bg" x1="0" y1="0" x2="1" y2="1">
      <stop offset="0" stop-color="#0B1320"/>
      <stop offset="1" stop-color="#0B1F3B"/>
    </linearGradient>
  </defs>
  <rect width="1200" height="640" fill="url(#bg)"/>
  <g opacity="0.20">
    <path d="M0 140H1200M0 280H1200M0 420H1200M0 560H1200" stroke="#fff"/>
    <path d="M160 0V640M320 0V640M480 0V640M640 0V640M800 0V640M960 0V640M1120 0V640" stroke="#fff"/>
  </g>
  <path d="M250 520C350 430 510 470 600 390C710 290 860 310 980 240" fill="none" stroke="rgba(212,31,42,.55)" stroke-width="6" stroke-linecap="round"/>
  <path d="M210 220C320 200 410 250 520 220C650 185 760 220 890 190" fill="none" stroke="rgba(10,72,160,.55)" stroke-width="6" stroke-linecap="round"/>
  <g>
    <circle cx="760" cy="310" r="18" fill="#D41F2A"/>
    <path d="M760 235c-36 0-65 29-65 65 0 53 65 122 65 122s65-69 65-122c0-36-29-65-65-65Z" fill="rgba(212,31,42,.22)"/>
    <circle cx="760" cy="310" r="7" fill="#fff"/>
  </g>
  <text x="60" y="600" fill="rgba(255,255,255,.70)" font-size="24" font-family="Inter, system-ui, -apple-system, Segoe UI, Arial">
    Google Maps  placeholder (‡ remplacer par une intÈgration Maps)
  </text>
</svg>
